<svg xmlns="http://www.w3.org/2000/svg" width="260.008" height="211.906" viewBox="0 0 260.008 211.906">
    <defs>
        <style>
            .cls-3,.cls-5{fill:none}.cls-13,.cls-3,.cls-5{stroke:#474747;stroke-linecap:round;stroke-linejoin:round;stroke-miterlimit:10}.cls-13,.cls-3{stroke-width:6px}.cls-4{fill:#77ba85}.cls-6{fill:#f6f9ea}.cls-7{fill:#97cd78}.cls-13{fill:#474747}.cls-10{fill:#f58870}.cls-13{opacity:.3}.cls-14{opacity:.46}.cls-23{fill:#fdb740}.cls-24{fill:#fff3c0;opacity:.88}.cls-25{fill:#f29e25}
        </style>
    </defs>
    <g id="day78-wallet" transform="translate(0 -193.552)">
        <g id="XMLID_1_" opacity="0.15" transform="translate(40.951 196.556)">
            <path id="XMLID_57_" d="M157.5 387.9h20.645v10.062H157.5" class="cls-3" transform="translate(-157.5 -338.149)"/>
            <path id="XMLID_59_" d="M20.619 0L0 0" class="cls-3" transform="translate(20.645 59.813)"/>
            <path id="XMLID_38_" d="M0 0L7.904 0" class="cls-3" transform="translate(20.645 49.751)"/>
            <path id="XMLID_42_" d="M0 0H20.619V10.062H0z" class="cls-3" transform="translate(10.322 59.813)"/>
            <path id="XMLID_52_" d="M169.9 465.5h17.42v10.062h-6.682" class="cls-3" transform="translate(-166.676 -395.573)"/>
            <path id="XMLID_54_" d="M0 0H20.619V10.062H0z" class="cls-3" transform="translate(20.645 69.927)"/>
            <path id="XMLID_81_" d="M580.5 528h20.645v10.036H580.5" class="cls-3" transform="translate(-470.517 -441.822)"/>
            <path id="XMLID_80_" d="M20.619 0L0 0" class="cls-3" transform="translate(130.628 96.214)"/>
            <path id="XMLID_79_" d="M0 0L7.904 0" class="cls-3" transform="translate(130.628 86.178)"/>
            <path id="XMLID_78_" d="M0 0H20.619V10.062H0z" class="cls-3" transform="translate(120.306 96.214)"/>
            <path id="XMLID_77_" d="M592.9 605.5h17.42v10.062h-6.682" class="cls-3" transform="translate(-479.693 -499.172)"/>
            <path id="XMLID_76_" d="M673.186 615.562H659.9V605.5h17.187" class="cls-3" transform="translate(-529.272 -499.172)"/>
            <path id="XMLID_25_" d="M0 0H32.007V25.949H0z" class="cls-3" transform="translate(42.719 12.076)"/>
            <path id="XMLID_62_" d="M338.8 295.5l5.85-8.5 6.084 7.514" class="cls-3" transform="translate(-291.661 -263.484)"/>
            <path id="XMLID_64_" d="M376.1 282.73l8.19-7.93 5.8 11.674" class="cls-3" transform="translate(-319.262 -254.456)"/>
            <path id="XMLID_63_" d="M367.9 289.106a3.075 3.075 0 0 1 5.564-.6" class="cls-3" transform="translate(-313.194 -263.484)"/>
            <path id="XMLID_24_" d="M626.769 392.884h-45.527a3.029 3.029 0 0 1-3.042-3.042 3.029 3.029 0 0 1 3.042-3.042h45.527a3.029 3.029 0 0 1 3.042 3.042 3.029 3.029 0 0 1-3.042 3.042z" class="cls-3" transform="translate(-468.815 -337.335)"/>
            <path id="XMLID_23_" d="M658.995 338.33h-13.339L642.9 321.3h18.877z" class="cls-3" transform="translate(-516.692 -288.866)"/>
            <path id="XMLID_46_" d="M0 0H23.999V4.94H0z" class="cls-3" transform="translate(123.686 27.494)"/>
            <g id="XMLID_68_" transform="translate(131.446 8.748)">
                <path id="XMLID_83_" d="M670.34 248.947h-4.914c-1.352-4.706-2.522-9.646-2.366-14.482a5.125 5.125 0 0 1 4.84-4.265 5.125 5.125 0 0 1 4.836 4.264c.1 4.836-1.07 9.776-2.396 14.483z" class="cls-3" transform="translate(-663.046 -230.2)"/>
            </g>
            <path id="XMLID_71_" d="M700.7 225.513l3.406-5.642a2.044 2.044 0 0 1 3.094-.494 2.03 2.03 0 0 1-.052 3.12l-6.4 5.252" class="cls-3" transform="translate(-559.464 -213.073)"/>
            <path id="XMLID_75_" d="M709.22 203.3l-1.612-5.044a1.291 1.291 0 0 1 1.066-1.69 1.334 1.334 0 0 1 1.508 1.326l-.13 4.082" class="cls-3" transform="translate(-564.526 -196.556)"/>
        </g>
        <g id="XMLID_20_" transform="translate(106.456 226.825)">
            <path id="XMLID_7_" d="M0 0H78.29V37.78H0z" class="cls-4" transform="rotate(115.989 28.96 29.61)"/>
            <path id="XMLID_17_" d="M0 0H78.29V37.78H0z" class="cls-5" transform="rotate(115.989 28.96 29.61)"/>
            <path id="XMLID_16_" d="M480.737 354.8l-10.868-5.3a8.511 8.511 0 0 1-11.388 3.926L431.7 408.34l26.183 12.766 26.781-54.914a8.489 8.489 0 0 1-3.927-11.392z" class="cls-6" transform="translate(-425.911 -340.002)"/>
            <path id="XMLID_12_" d="M480.737 354.8l-10.868-5.3a8.511 8.511 0 0 1-11.388 3.926L431.7 408.34l26.183 12.766 26.781-54.914a8.489 8.489 0 0 1-3.927-11.392z" class="cls-5" transform="translate(-425.911 -340.002)"/>
            <path id="XMLID_10_" d="M0 0H29.121V69.631H0z" class="cls-5" transform="rotate(25.989 5.638 81.55)"/>
            <circle id="XMLID_19_" cx="8.918" cy="8.918" r="8.918" class="cls-4" transform="translate(27.812 29.051)"/>
            <circle id="XMLID_13_" cx="8.918" cy="8.918" r="8.918" class="cls-5" transform="translate(27.812 29.051)"/>
        </g>
        <g id="XMLID_22_" transform="translate(115.755 238.275)">
            <path id="XMLID_33_" d="M0 0H78.286V37.778H0z" class="cls-7" transform="scale(-1) rotate(-39.36 -83.122 103.572)"/>
            <path id="XMLID_32_" d="M0 0H78.286V37.778H0z" class="cls-5" transform="scale(-1) rotate(-39.36 -83.122 103.572)"/>
            <path id="XMLID_31_" d="M535.6 411.73l-7.67-9.334a8.509 8.509 0 0 1-11.986-1.2L468.7 439.941l18.461 22.517 47.239-38.741a8.512 8.512 0 0 1 1.2-11.987z" class="cls-6" transform="translate(-462.59 -389.71)"/>
            <path id="XMLID_30_" d="M535.6 411.73l-7.67-9.334a8.509 8.509 0 0 1-11.986-1.2L468.7 439.941l18.461 22.517 47.239-38.741a8.512 8.512 0 0 1 1.2-11.987z" class="cls-5" transform="translate(-462.59 -389.71)"/>
            <path id="XMLID_29_" d="M0 0H29.12V69.628H0z" class="cls-5" transform="rotate(50.64 23.525 66.401)"/>
            <circle id="XMLID_28_" cx="8.918" cy="8.918" r="8.918" class="cls-7" transform="translate(37.987 26.623)"/>
            <circle id="XMLID_27_" cx="8.918" cy="8.918" r="8.918" class="cls-5" transform="translate(37.987 26.623)"/>
            <path id="XMLID_48_" fill="#474747" stroke="#474747" stroke-linecap="round" stroke-linejoin="round" stroke-miterlimit="10" stroke-width="6px" d="M493.093 423.364a18.215 18.215 0 0 0-4.576-12.064L445.2 446.817l23.973 29.225 23.947-19.631v-33.047z" opacity="0.32" transform="translate(-445.2 -397.183)"/>
        </g>
        <path id="XMLID_9_" fill="none" stroke="#474747" stroke-linecap="round" stroke-linejoin="round" stroke-miterlimit="10" stroke-width="6px" d="M0 0L172.125 0" opacity="0.15" transform="translate(43.941 340.118)"/>
        <g id="Group_288" transform="translate(75.246 241.705)">
            <path id="XMLID_15_" d="M359.6 485.263H305a15.613 15.613 0 0 1-15.6-15.6V408.3a15.613 15.613 0 0 1 15.6-15.6h54.6a15.613 15.613 0 0 1 15.6 15.6v61.362a15.58 15.58 0 0 1-15.6 15.601z" class="cls-10" transform="translate(-289.4 -386.85)"/>
            <path id="XMLID_36_" d="M359.6 485.263H305a15.613 15.613 0 0 1-15.6-15.6V408.3a15.613 15.613 0 0 1 15.6-15.6h54.6a15.613 15.613 0 0 1 15.6 15.6v61.362a15.58 15.58 0 0 1-15.6 15.601z" class="cls-10" transform="translate(-289.4 -386.85)"/>
            <path id="XMLID_43_" fill="#dd7868" d="M359.6 692.2H305a15.613 15.613 0 0 1-15.6-15.6v3.146a15.613 15.613 0 0 0 15.6 15.6h54.6a15.613 15.613 0 0 0 15.6-15.6V676.6a15.6 15.6 0 0 1-15.6 15.6z" transform="translate(-289.4 -596.934)"/>
            <path id="XMLID_40_" fill="#ffa399" d="M359.6 392.7H305c-8.606 0-15.6 6.422-15.6 14.326v3.354c0-7.9 6.994-14.326 15.6-14.326h54.6c8.606 0 15.6 6.422 15.6 14.326v-3.354c0-7.904-6.966-14.326-15.6-14.326z" transform="translate(-289.4 -386.85)"/>
            <path id="XMLID_34_" d="M436.121 430.791H422.08a4.694 4.694 0 0 1-4.68-4.68V397.38a4.694 4.694 0 0 1 4.68-4.68h18.72v33.411a4.677 4.677 0 0 1-4.679 4.68z" class="cls-13" transform="translate(-384.119 -386.85)"/>
            <path id="XMLID_2_" d="M359.6 485.263H305a15.613 15.613 0 0 1-15.6-15.6V408.3a15.613 15.613 0 0 1 15.6-15.6h54.6a15.613 15.613 0 0 1 15.6 15.6v61.362a15.58 15.58 0 0 1-15.6 15.601z" class="cls-5" transform="translate(-289.4 -386.85)"/>
            <g id="XMLID_5_" class="cls-14" transform="translate(5.72 11.96)">
                <path id="Path_115" fill="none" stroke="#474747" stroke-dasharray="13.958 9.97" stroke-linecap="round" stroke-linejoin="round" d="M311.4 486.662V426.08a9.876 9.876 0 0 1 9.88-9.88h54.6a9.876 9.876 0 0 1 9.88 9.88v60.556a9.876 9.876 0 0 1-9.88 9.88h-54.6a9.837 9.837 0 0 1-9.88-9.854z" transform="translate(-311.4 -416.2)"/>
            </g>
            <path id="XMLID_18_" fill="#f79765" d="M428.121 411.281H414.08a4.694 4.694 0 0 1-4.68-4.68V374.88a4.694 4.694 0 0 1 4.68-4.68h14.04a4.694 4.694 0 0 1 4.68 4.68v31.72a4.677 4.677 0 0 1-4.679 4.681z" transform="translate(-378.199 -370.2)"/>
            <path id="XMLID_45_" fill="#e27444" d="M428.121 506.58H414.08a4.694 4.694 0 0 1-4.68-4.68v2.158a4.694 4.694 0 0 0 4.68 4.68h14.04a4.694 4.694 0 0 0 4.68-4.68V501.9a4.677 4.677 0 0 1-4.679 4.68z" transform="translate(-378.199 -467.657)"/>
            <path id="XMLID_44_" fill="#ffb797" d="M428.121 370.2H414.08a4.694 4.694 0 0 0-4.68 4.68v1.768a4.694 4.694 0 0 1 4.68-4.68h14.04a4.694 4.694 0 0 1 4.68 4.68v-1.768a4.677 4.677 0 0 0-4.679-4.68z" transform="translate(-378.199 -370.2)"/>
            <path id="XMLID_4_" d="M428.121 411.281H414.08a4.694 4.694 0 0 1-4.68-4.68V374.88a4.694 4.694 0 0 1 4.68-4.68h14.04a4.694 4.694 0 0 1 4.68 4.68v31.72a4.677 4.677 0 0 1-4.679 4.681z" class="cls-5" transform="translate(-378.199 -370.2)"/>
            <circle id="XMLID_35_" cx="6.032" cy="6.032" r="6.032" class="cls-13" transform="translate(37.649 22.309)"/>
            <g id="XMLID_11_" class="cls-14" transform="translate(34.321 3.12)">
                <path id="Path_116" fill="none" stroke="#474747" stroke-dasharray="9.839 11.807" stroke-linecap="round" stroke-linejoin="round" d="M422.96 417.041a1.565 1.565 0 0 1-1.56-1.56V383.76a1.565 1.565 0 0 1 1.56-1.56H437a1.565 1.565 0 0 1 1.56 1.56v31.721a1.565 1.565 0 0 1-1.56 1.56z" transform="translate(-421.4 -382.2)"/>
            </g>
            <circle id="XMLID_21_" cx="6.032" cy="6.032" r="6.032" fill="#8f6d5d" transform="translate(36.869 20.749)"/>
            <circle id="XMLID_6_" cx="6.032" cy="6.032" r="6.032" class="cls-3" transform="translate(36.869 20.749)"/>
            <g id="XMLID_37_" opacity="0.6" transform="translate(39.237 22.24)">
                <path id="Path_117" fill="#fffcee" d="M446.52 457.182c.208.988-.962 1.612-2.678 1.976-1.742.338-3.3.39-3.51-.442-.208-.806.962-2.34 2.678-2.834 1.742-.494 3.302.338 3.51 1.3z" transform="translate(-440.308 -455.735)"/>
            </g>
        </g>
        <g id="XMLID_65_" transform="translate(184.865 335.048)">
            <path id="XMLID_41_" d="M731.1 734.27h-18.2a1.909 1.909 0 0 1-1.9-1.9v-1.27a1.909 1.909 0 0 1 1.9-1.9h18.2a1.909 1.909 0 0 1 1.9 1.9v1.274a1.892 1.892 0 0 1-1.9 1.896z" class="cls-23" transform="translate(-711 -729.2)"/>
            <path id="XMLID_72_" d="M731.1 731.3h-18.2a1.909 1.909 0 0 0-1.9 1.9v.728a1.909 1.909 0 0 1 1.9-1.9h18.2a1.909 1.909 0 0 1 1.9 1.9v-.728a1.909 1.909 0 0 0-1.9-1.9z" class="cls-24" transform="translate(-711 -730.754)"/>
            <path id="XMLID_70_" d="M731.1 739.026h-18.2a1.909 1.909 0 0 1-1.9-1.9v-.726a1.909 1.909 0 0 0 1.9 1.9h18.2a1.909 1.909 0 0 0 1.9-1.9v.728a1.892 1.892 0 0 1-1.9 1.898z" class="cls-25" transform="translate(-711 -734.528)"/>
            <path id="XMLID_39_" d="M731.1 734.27h-18.2a1.909 1.909 0 0 1-1.9-1.9v-1.27a1.909 1.909 0 0 1 1.9-1.9h18.2a1.909 1.909 0 0 1 1.9 1.9v1.274a1.892 1.892 0 0 1-1.9 1.896z" class="cls-5" transform="translate(-711 -729.2)"/>
        </g>
        <g id="XMLID_73_" transform="translate(187.907 330.004)">
            <path id="XMLID_90_" d="M742.8 714.87h-18.2a1.909 1.909 0 0 1-1.9-1.9v-1.27a1.909 1.909 0 0 1 1.9-1.9h18.2a1.909 1.909 0 0 1 1.9 1.9v1.274a1.909 1.909 0 0 1-1.9 1.896z" class="cls-23" transform="translate(-722.7 -709.8)"/>
            <path id="XMLID_89_" d="M742.8 711.9h-18.2a1.909 1.909 0 0 0-1.9 1.9v.728a1.909 1.909 0 0 1 1.9-1.9h18.2a1.909 1.909 0 0 1 1.9 1.9v-.728a1.926 1.926 0 0 0-1.9-1.9z" class="cls-24" transform="translate(-722.7 -711.354)"/>
            <path id="XMLID_88_" d="M742.8 719.626h-18.2a1.909 1.909 0 0 1-1.9-1.9V717a1.909 1.909 0 0 0 1.9 1.9h18.2a1.909 1.909 0 0 0 1.9-1.9v.728a1.909 1.909 0 0 1-1.9 1.898z" class="cls-25" transform="translate(-722.7 -715.128)"/>
            <path id="XMLID_74_" d="M742.8 714.87h-18.2a1.909 1.909 0 0 1-1.9-1.9v-1.27a1.909 1.909 0 0 1 1.9-1.9h18.2a1.909 1.909 0 0 1 1.9 1.9v1.274a1.909 1.909 0 0 1-1.9 1.896z" class="cls-5" transform="translate(-722.7 -709.8)"/>
        </g>
        <g id="XMLID_47_" transform="translate(184.865 324.959)">
            <path id="XMLID_56_" d="M731.1 695.47h-18.2a1.909 1.909 0 0 1-1.9-1.9v-1.27a1.909 1.909 0 0 1 1.9-1.9h18.2a1.909 1.909 0 0 1 1.9 1.9v1.274a1.892 1.892 0 0 1-1.9 1.896z" class="cls-23" transform="translate(-711 -690.4)"/>
            <path id="XMLID_53_" d="M731.1 692.6h-18.2a1.909 1.909 0 0 0-1.9 1.9v.728a1.909 1.909 0 0 1 1.9-1.9h18.2a1.909 1.909 0 0 1 1.9 1.9v-.728a1.892 1.892 0 0 0-1.9-1.9z" class="cls-24" transform="translate(-711 -692.028)"/>
            <path id="XMLID_50_" d="M731.1 700.326h-18.2a1.909 1.909 0 0 1-1.9-1.9v-.726a1.909 1.909 0 0 0 1.9 1.9h18.2a1.909 1.909 0 0 0 1.9-1.9v.728a1.909 1.909 0 0 1-1.9 1.898z" class="cls-25" transform="translate(-711 -695.802)"/>
            <path id="XMLID_49_" d="M731.1 695.47h-18.2a1.909 1.909 0 0 1-1.9-1.9v-1.27a1.909 1.909 0 0 1 1.9-1.9h18.2a1.909 1.909 0 0 1 1.9 1.9v1.274a1.892 1.892 0 0 1-1.9 1.896z" class="cls-5" transform="translate(-711 -690.4)"/>
        </g>
        <g id="XMLID_58_" transform="translate(167.759 322.18)">
            <path id="XMLID_67_" d="M661.821 683.762l-12.428 13.286a1.891 1.891 0 0 1-2.678.078l-.91-.858a1.891 1.891 0 0 1-.078-2.678l12.428-13.29a1.891 1.891 0 0 1 2.678-.078l.91.858a1.94 1.94 0 0 1 .078 2.682z" class="cls-23" transform="translate(-645.208 -679.708)"/>
            <path id="XMLID_66_" d="M659.583 681.7l-12.428 13.286a1.916 1.916 0 0 0 .078 2.678l.546.494a1.891 1.891 0 0 1-.078-2.678l12.428-13.28a1.891 1.891 0 0 1 2.678-.078l-.546-.494a1.891 1.891 0 0 0-2.678.072z" class="cls-24" transform="translate(-646.273 -680.744)"/>
            <path id="XMLID_61_" d="M662.953 684.772l-12.428 13.286a1.891 1.891 0 0 1-2.678.078l-.546-.494a1.916 1.916 0 0 0 2.678-.078l12.428-13.286a1.916 1.916 0 0 0-.078-2.678l.546.494a1.941 1.941 0 0 1 .078 2.678z" class="cls-25" transform="translate(-646.756 -681.108)"/>
            <path id="XMLID_60_" d="M661.821 683.762l-12.428 13.286a1.891 1.891 0 0 1-2.678.078l-.91-.858a1.891 1.891 0 0 1-.078-2.678l12.428-13.29a1.891 1.891 0 0 1 2.678-.078l.91.858a1.94 1.94 0 0 1 .078 2.682z" class="cls-5" transform="translate(-645.208 -679.708)"/>
        </g>
    </g>
</svg>
